/* XPM */
const char * demoicon_xpm[] = {
/* columns rows colors chars-per-pixel */
"16 16 57 1",
"  c #167F9D",
". c #355FB1",
"X c #3865BC",
"o c #396AC3",
"O c #3E70CD",
"+ c #4072D4",
"@ c #4277DC",
"# c #4479E0",
"$ c #457BE3",
"% c #477EE6",
"& c #487DE6",
"* c #1989AA",
"= c #1F8EB0",
"- c #4D96AF",
"; c #7E9EA3",
": c #1E9DC3",
"> c #20A0C7",
", c #24A2C8",
"< c #22AAD3",
"1 c #25B3DD",
"2 c #28B4DE",
"3 c #2AB7E3",
"4 c #25B9E4",
"5 c #23BBE8",
"6 c #21BDEA",
"7 c #28BFED",
"8 c #4980EA",
"9 c #4A81EE",
"0 c #4580F3",
"q c #4A83F1",
"w c #26C0ED",
"e c #2BC1EF",
"r c #29C2F0",
"t c #2FC2F0",
"y c #2CC3F2",
"u c #92B4BA",
"i c #98BDC3",
"p c #99BFC5",
"a c #A7CED7",
"s c #AAD1DA",
"d c #ACD5DD",
"f c #AED7E0",
"g c #AFD9E2",
"h c #B1DBE4",
"j c #B3DDE6",
"k c #B4E0E8",
"l c #B6E0E9",
"z c #B7E1EA",
"x c #B9E3EC",
"c c #BAE6EF",
"v c #BCE6EF",
"b c #BDE7F1",
"n c #BCE9F0",
"m c #BEE8F1",
"M c #BAE7F9",
"N c #FCFCFD",
"B c #FFFFFF",
/* pixels */
"BBBBBBBBBBBBBBBB",
"BBBBBBBBBBBBBMrB",
"BBBBBBBtttrrrrBB",
"BBBBBBBwwrww7eBB",
"BBBBBBBB374677BB",
"BBBBBBBBo,145BBB",
"BBBB8&#+X=<24BBB",
"Bqq98%@O. :<BBBB",
"BBq9%%@X;;*>fzBB",
"BBBqq99uiip-kxbB",
"BBBB0q%$asdjcmBB",
"BBBBBBNBghjzcnBB",
"BBBBBBBBBzzxcBBB",
"BBBBBBBBBBccbBBB",
"BBBBBBBBBBcbBBBB",
"BBBBBBBBBBBmBBBB"};
