/* XPM */
const char * demoicon_xpm[] = {
/* columns rows colors chars-per-pixel */
"16 16 3 1",
" 	c #ff0000",
".	c #ff0000",
"+	c #ff0000",
/* pixels */
"................",
"...++++...++++..",
"..+....+.+....+.",
"..+......+......",
"..+......+..+++.",
"..+......+....+.",
"..+....+.+....+.",
"...++++...++++..",
"................",
"...++++...+.....",
"..+....+..+.....",
"..+....+..+.....",
"..++++++..+.....",
"..+....+..+.....",
"..+....+..+++++.",
"................"};
