ply
format ascii 1.0
comment Generated by the CGAL library
comment TextureFile Tile_+1990_+2695_0.jpg
comment label -1 unclassified
comment label 1 ground
comment label 2 vegetation
comment label 3 building
comment label 4 water
comment label 5 vehicle
element vertex 11
property double x
property double y
property double z
element face 12
property list uchar int vertex_indices
property int label
property uchar red
property uchar green
property uchar blue
property list uchar float texcoord
end_header
7680.409 5959.062 12.02256 
7678.049 5961.286 12.05104 
7678.121 5958.775 12.05581 
7675.889 5961.778 12.06855 
7681.507 5955.708 11.99165 
7674.071 5951.433 12.12802 
7677.462 5955.866 12.05020 
7671.656 5955.517 12.11759 
7674.173 5958.729 12.12031 
7679.951 5957.046 12.00903 
7677.917 5953.353 12.03877 
3 2 9 0 3 183 198 156 6 0.210042 0.264891 0.214724 0.260466 0.215896 0.265622 
3 2 1 8 3 245 121 0 6 0.210042 0.264891 0.209862 0.271314 0.199944 0.264777 
3 6 9 2 -1 217 126 76 6 0.208354 0.257449 0.214724 0.260466 0.210042 0.264891 
3 1 2 0 4 77 131 186 6 0.209862 0.271314 0.210042 0.264891 0.215896 0.265622 
3 0 9 4 3 200 205 82 6 0.215896 0.265622 0.214724 0.260466 0.218701 0.257040 
3 8 1 3 2 138 226 52 6 0.199944 0.264777 0.209862 0.271314 0.204336 0.272575 
3 4 9 10 3 67 159 166 6 0.218701 0.257040 0.214724 0.260466 0.209515 0.251021 
3 6 10 9 3 95 229 120 6 0.208354 0.257449 0.209515 0.251021 0.214724 0.260466 
3 2 8 6 5 102 179 171 6 0.210042 0.264891 0.199944 0.264777 0.208354 0.257449 
3 8 7 6 1 186 189 182 6 0.199944 0.264777 0.193503 0.256563 0.208354 0.257449 
3 10 6 5 3 181 86 252 6 0.209515 0.251021 0.208354 0.257449 0.199677 0.246114 
3 6 7 5 -1 0 0 0 6 0.208354 0.257449 0.193503 0.256563 0.199677 0.246114 
